<svg width="128" height="128" viewBox="0 0 128 128" fill="none" xmlns="http://www.w3.org/2000/svg">
<g clip-path="url(#clip0_186_2)">
<path d="M128 118.195V9.80498C128 5.35498 125.04 1.60498 120.98 0.401978L116.375 3.15998L65.2421 57.68L63.6371 62.691L62.7031 67.5L78.6481 127.09L81.1131 128H118.195C123.609 128 128 123.61 128 118.195Z" fill="#EA6618"/>
<path d="M2.02027e-06 9.805V118.195C-0.0010196 119.785 0.38544 121.352 1.12595 122.76C1.86647 124.167 2.93873 125.373 4.25 126.273L7.395 124.77L61.515 66.82L63.637 62.691L63.719 58.695L48.989 2.652L46.757 0H9.805C4.39 0 2.02027e-06 4.39 2.02027e-06 9.805Z" fill="#D65813"/>
<path d="M63.6368 62.691L120.98 0.402005C120.076 0.134432 119.138 -0.000969793 118.195 5.22835e-06H46.7578L63.6368 62.691Z" fill="#E05E11"/>
<path d="M9.805 128H81.113L63.637 62.691L4.25 126.273C5.88251 127.401 7.82064 128.004 9.805 128Z" fill="#DE5C16"/>
<path d="M47.4597 48.516H54.5697C57.4057 59.207 60.6327 68.59 64.2297 77.059C68.3047 67.531 71.2927 58.141 73.8197 48.516H80.5427C77.5307 60.476 72.6087 72.536 66.9767 84.98H61.0297C55.6197 73.187 51.0147 61.062 47.4597 48.516ZM23.9997 29.988H39.8127V97.805H23.9297V92.578H33.6637V35.074H23.9997V29.988ZM104.082 35.074H94.4177V92.578H104.152V97.805H88.2697V29.988H104.082V35.074Z" fill="white"/>
</g>
<defs>
<clipPath id="clip0_186_2">
<rect width="128" height="128" fill="white"/>
</clipPath>
</defs>
</svg>
