<svg width="400" height="400" viewBox="0 0 400 400" fill="none" xmlns="http://www.w3.org/2000/svg">
<g clip-path="url(#clip0_114_1345)">
<path d="M200 0C310.5 0 400 89.4999 400 200C399.989 241.905 386.838 282.752 362.396 316.79C337.954 350.829 303.454 376.346 263.75 389.75C253.75 391.75 250 385.5 250 380.25C250 373.5 250.25 352 250.25 325.25C250.25 306.5 244 294.5 236.75 288.25C281.25 283.25 328 266.25 328 189.5C328 167.5 320.25 149.75 307.5 135.75C309.5 130.75 316.5 110.25 305.5 82.75C305.5 82.75 288.75 77.25 250.5 103.25C234.5 98.7499 217.5 96.4999 200.5 96.4999C183.5 96.4999 166.5 98.7499 150.5 103.25C112.25 77.5 95.5 82.75 95.5 82.75C84.5 110.25 91.5 130.75 93.5 135.75C80.75 149.75 73 167.75 73 189.5C73 266 119.5 283.25 164 288.25C158.25 293.25 153 302 151.25 315C139.75 320.25 111 328.75 93 298.5C89.25 292.5 78 277.75 62.25 278C45.5 278.25 55.5 287.5 62.5 291.25C71 296 80.75 313.75 83 319.5C87 330.75 100 352.25 150.25 343C150.25 359.75 150.5 375.5 150.5 380.25C150.5 385.5 146.75 391.5 136.75 389.75C96.916 376.491 62.2684 351.025 37.7223 316.966C13.1762 282.906 -0.022012 241.983 2.75578e-05 200C2.75578e-05 89.4999 89.5 0 200 0Z" fill="white"/>
</g>
<defs>
<clipPath id="clip0_114_1345">
<rect width="400" height="400" fill="white"/>
</clipPath>
</defs>
</svg>
