<svg width="168" height="168" viewBox="0 0 168 168" fill="none" xmlns="http://www.w3.org/2000/svg">
<path d="M16.8252 49.4256L84 83.0088L151.175 49.4256C150.926 45.1453 149.05 41.1221 145.932 38.1799C142.813 35.2377 138.688 33.5992 134.4 33.6H33.6C29.3125 33.5992 25.187 35.2377 22.0683 38.1799C18.9496 41.1221 17.0739 45.1453 16.8252 49.4256Z" fill="white"/>
<path d="M151.2 68.1912L83.9999 101.791L16.8 68.1912V117.6C16.8 122.056 18.57 126.329 21.7206 129.479C24.8712 132.63 29.1443 134.4 33.6 134.4H134.4C138.856 134.4 143.129 132.63 146.279 129.479C149.43 126.329 151.2 122.056 151.2 117.6V68.1912Z" fill="white"/>
</svg>
