<svg width="168" height="168" viewBox="0 0 168 168" fill="none" xmlns="http://www.w3.org/2000/svg">
<path d="M121.078 58.8L148.739 31.1388C150.269 29.5545 151.116 27.4327 151.097 25.2302C151.077 23.0278 150.194 20.9209 148.637 19.3635C147.079 17.8061 144.972 16.9227 142.77 16.9035C140.567 16.8844 138.445 17.731 136.861 19.2612L109.2 46.9224V33.6C109.2 31.3722 108.315 29.2356 106.74 27.6603C105.164 26.085 103.028 25.2 100.8 25.2C98.5722 25.2 96.4356 26.085 94.8603 27.6603C93.285 29.2356 92.4 31.3722 92.4 33.6V67.2252C92.4001 68.8831 92.8929 70.5037 93.8156 71.8811C94.7384 73.2585 96.0496 74.3307 97.5828 74.9616C98.6027 75.3844 99.696 75.6013 100.8 75.6H134.4C136.628 75.6 138.764 74.715 140.34 73.1397C141.915 71.5644 142.8 69.4278 142.8 67.2C142.8 64.9722 141.915 62.8356 140.34 61.2603C138.764 59.685 136.628 58.8 134.4 58.8H121.078Z" fill="white"/>
<path d="M16.8 25.2C16.8 22.9722 17.685 20.8356 19.2603 19.2603C20.8356 17.685 22.9722 16.8 25.2 16.8H43.2852C45.2735 16.8009 47.1971 17.5071 48.7136 18.793C50.2302 20.0788 51.2415 21.861 51.5676 23.8224L57.7836 61.0764C58.0806 62.8506 57.8002 64.6733 56.9836 66.2763C56.167 67.8792 54.8574 69.1776 53.2476 69.9804L40.2444 76.4736C44.9073 88.0291 51.8518 98.526 60.6629 107.337C69.474 116.148 79.9709 123.093 91.5264 127.756L98.028 114.752C98.8304 113.144 100.127 111.836 101.729 111.019C103.33 110.203 105.151 109.921 106.924 110.216L144.178 116.432C146.139 116.758 147.921 117.77 149.207 119.286C150.493 120.803 151.199 122.726 151.2 124.715V142.8C151.2 145.028 150.315 147.164 148.74 148.74C147.164 150.315 145.028 151.2 142.8 151.2H126C65.688 151.2 16.8 102.312 16.8 42V25.2Z" fill="white"/>
</svg>
