<svg width="400" height="400" viewBox="0 0 400 400" fill="none" xmlns="http://www.w3.org/2000/svg">
<path d="M275 200C275 188.667 274 177.667 272.667 166.667H329C331.667 177.333 333.334 188.5 333.334 200C333.334 206.167 332.834 212.167 332 218C343.5 219.667 354.167 223.333 364 228.667C365.667 219.333 366.667 209.833 366.667 200C366.667 108.333 291.667 33.3333 200 33.3333C107.833 33.3333 33.3335 108.333 33.3335 200C33.3335 291.667 108.334 366.667 200 366.667C209.834 366.667 219.334 365.667 228.667 364C220.751 349.482 216.623 333.202 216.667 316.667C216.667 311.833 217.167 307.167 217.834 302.5C212.5 313 206.667 323.167 200 332.667C186.167 312.667 175 290.5 168.167 266.667H230.167C240.177 249.273 255.229 235.325 273.334 226.667C274.334 217.833 275 209 275 200ZM200 67.1666C213.834 87.1666 225 109.5 231.834 133.333H168.167C175 109.5 186.167 87.1666 200 67.1666ZM71.0002 233.333C68.3335 222.667 66.6668 211.5 66.6668 200C66.6668 188.5 68.3335 177.333 71.0002 166.667H127.334C126 177.667 125 188.667 125 200C125 211.333 126 222.333 127.334 233.333H71.0002ZM84.6668 266.667H133.334C139.167 287.5 146.667 307.5 156.667 326C126.311 315.528 100.748 294.462 84.6668 266.667ZM133.334 133.333H84.6668C100.648 105.453 126.247 84.358 156.667 73.9999C146.667 92.4999 139.167 112.5 133.334 133.333ZM239 233.333H161C159.334 222.333 158.334 211.333 158.334 200C158.334 188.667 159.334 177.5 161 166.667H239C240.5 177.5 241.667 188.667 241.667 200C241.667 211.333 240.5 222.333 239 233.333ZM243.167 73.9999C273.834 84.4999 299.334 105.667 315.334 133.333H266.167C260.951 112.691 253.226 92.7648 243.167 73.9999ZM375 287.5L295.834 366.667L250 316.667L269.334 297.333L295.834 323.833L355.667 264L375 287.5Z" fill="white"/>
</svg>
